<?xml version="1.0" standalone="no"?>
<!DOCTYPE svg PUBLIC "-//W3C//DTD SVG 20010904//EN"
 "http://www.w3.org/TR/2001/REC-SVG-20010904/DTD/svg10.dtd">
<svg version="1.0" xmlns="http://www.w3.org/2000/svg"
 width="700.000000pt" height="700.000000pt" viewBox="0 0 700.000000 700.000000"
 preserveAspectRatio="xMidYMid meet">
<metadata>
Created by potrace 1.11, written by Peter Selinger 2001-2013
</metadata>
<g transform="translate(0.000000,700.000000) scale(0.100000,-0.100000)"
fill="#000000" stroke="none">
<path d="M3549 6496 c-2 -2 -47 -6 -99 -10 -52 -3 -106 -8 -120 -10 -14 -3
-45 -7 -70 -10 -164 -22 -421 -81 -600 -139 -404 -132 -820 -365 -1130 -633
-94 -81 -312 -305 -382 -393 -337 -422 -540 -874 -617 -1376 -10 -71 -22 -166
-26 -210 -7 -88 -7 -372 0 -420 2 -16 6 -59 10 -95 9 -105 46 -314 66 -378 6
-18 12 -39 13 -45 20 -99 105 -332 174 -474 l29 -61 -29 -54 c-16 -29 -44 -80
-62 -113 -75 -137 -174 -315 -421 -760 -287 -516 -285 -512 -280 -584 8 -110
82 -190 189 -204 36 -5 130 15 278 58 31 8 64 18 74 20 11 2 66 17 124 33 360
100 672 185 715 197 28 7 131 35 230 63 99 27 194 53 210 57 17 5 35 10 40 11
91 29 95 29 195 -28 247 -141 546 -259 835 -332 114 -28 353 -73 435 -80 30
-3 84 -9 120 -13 84 -9 493 -10 590 -1 146 14 176 18 265 33 242 41 381 76
595 151 934 325 1658 1036 1955 1919 103 307 144 579 139 920 -1 116 -5 224
-7 240 -3 17 -8 57 -12 90 -4 32 -9 68 -11 80 -2 11 -9 47 -15 80 -15 87 -65
276 -101 380 -214 632 -670 1196 -1270 1574 -146 91 -338 192 -468 245 -36 15
-74 31 -85 36 -60 26 -284 100 -380 124 -87 22 -244 57 -274 61 -14 2 -53 8
-86 14 -33 5 -87 13 -120 16 -33 4 -73 8 -90 11 -36 6 -521 15 -526 10z m370
-1477 c307 -71 535 -310 595 -624 16 -80 14 -245 -3 -327 -7 -32 -12 -60 -12
-63 1 -16 -72 -171 -104 -219 -58 -88 -167 -195 -270 -266 -12 -8 -47 -32 -77
-53 l-55 -38 -1 -194 c-1 -175 -3 -199 -22 -242 -26 -59 -52 -87 -110 -121
-37 -23 -57 -27 -115 -27 -105 1 -179 46 -228 139 -19 38 -21 59 -23 261 -3
305 10 369 95 475 50 63 72 82 191 168 210 151 244 202 244 367 0 87 -25 146
-84 203 -153 147 -405 83 -468 -118 -6 -19 -13 -61 -17 -93 -11 -103 -56 -171
-139 -212 -172 -84 -357 37 -357 233 -1 158 61 335 160 462 194 248 501 359
800 289z m-47 -2447 c59 -26 124 -85 151 -137 11 -22 19 -40 17 -40 -2 0 2
-11 9 -24 16 -29 17 -123 2 -178 -14 -53 -66 -128 -113 -166 -121 -96 -315
-82 -425 31 -161 168 -90 456 131 528 57 19 170 12 228 -14z"/>
</g>
</svg>
